<mxfile host="65bd71144e" compressed="true">
    <diagram name="Overall Design" id="P6o2AylapWrktUBH8-Cs">
        <mxGraphModel dx="1980" dy="792" grid="1" gridSize="10" guides="1" tooltips="1" connect="1" arrows="1" fold="1" page="1" pageScale="1" pageWidth="850" pageHeight="1100" math="0" shadow="0">
            <root>
                <mxCell id="0"/>
                <mxCell id="1" parent="0"/>
                <mxCell id="zg9DQOE80Z0EGd7Dg1Hg-2" value="&lt;h1&gt;&lt;font style=&quot;font-size: 21px;&quot;&gt;React Front End Website&lt;/font&gt;&lt;/h1&gt;&lt;p&gt;This would just be a front end access point just to display the data, but leave update/delete/insert for C# Application&lt;/p&gt;" style="text;html=1;strokeColor=none;fillColor=none;spacing=5;spacingTop=-20;whiteSpace=wrap;overflow=hidden;rounded=0;" parent="1" vertex="1">
                    <mxGeometry x="-840" y="40" width="280" height="120" as="geometry"/>
                </mxCell>
                <mxCell id="zg9DQOE80Z0EGd7Dg1Hg-4" value="&lt;h1&gt;&lt;font style=&quot;font-size: 21px;&quot;&gt;Azure SQL Database&lt;/font&gt;&lt;/h1&gt;&lt;p&gt;Store the data that will be interacted with. Want an SQL database for readability and easy maintenance as needed.&amp;nbsp;&lt;/p&gt;" style="text;html=1;strokeColor=none;fillColor=none;spacing=5;spacingTop=-20;whiteSpace=wrap;overflow=hidden;rounded=0;" parent="1" vertex="1">
                    <mxGeometry x="360" y="340" width="280" height="120" as="geometry"/>
                </mxCell>
                <mxCell id="zg9DQOE80Z0EGd7Dg1Hg-5" value="" style="aspect=fixed;html=1;points=[];align=center;image;fontSize=12;image=img/lib/azure2/databases/Azure_SQL.svg;" parent="1" vertex="1">
                    <mxGeometry x="360" y="460" width="102.96" height="74" as="geometry"/>
                </mxCell>
                <mxCell id="zg9DQOE80Z0EGd7Dg1Hg-11" style="edgeStyle=orthogonalEdgeStyle;orthogonalLoop=1;jettySize=auto;html=1;entryX=0.005;entryY=0.63;entryDx=0;entryDy=0;fontSize=21;entryPerimeter=0;rounded=1;shadow=1;startArrow=classic;startFill=1;" parent="1" source="zg9DQOE80Z0EGd7Dg1Hg-6" target="zg9DQOE80Z0EGd7Dg1Hg-10" edge="1">
                    <mxGeometry relative="1" as="geometry">
                        <Array as="points">
                            <mxPoint x="-460" y="190"/>
                            <mxPoint x="-460" y="486"/>
                        </Array>
                    </mxGeometry>
                </mxCell>
                <mxCell id="zg9DQOE80Z0EGd7Dg1Hg-6" value="" style="aspect=fixed;html=1;points=[];align=center;image;fontSize=12;image=img/lib/azure2/app_services/App_Service_Domains.svg;" parent="1" vertex="1">
                    <mxGeometry x="-750" y="120" width="175" height="140" as="geometry"/>
                </mxCell>
                <mxCell id="zg9DQOE80Z0EGd7Dg1Hg-12" style="edgeStyle=orthogonalEdgeStyle;rounded=0;orthogonalLoop=1;jettySize=auto;html=1;entryX=0.005;entryY=0.63;entryDx=0;entryDy=0;entryPerimeter=0;fontSize=21;startArrow=classic;startFill=1;" parent="1" source="zg9DQOE80Z0EGd7Dg1Hg-7" target="zg9DQOE80Z0EGd7Dg1Hg-10" edge="1">
                    <mxGeometry relative="1" as="geometry"/>
                </mxCell>
                <mxCell id="zg9DQOE80Z0EGd7Dg1Hg-7" value="" style="sketch=0;html=1;aspect=fixed;strokeColor=none;shadow=0;align=center;verticalAlign=top;fillColor=#3B8DF1;shape=mxgraph.gcp2.website" parent="1" vertex="1">
                    <mxGeometry x="-660" y="580" width="100" height="97" as="geometry"/>
                </mxCell>
                <mxCell id="zg9DQOE80Z0EGd7Dg1Hg-8" value="&lt;h1&gt;&lt;span style=&quot;background-color: initial; font-size: 21px;&quot;&gt;C# Maintenance APP&lt;/span&gt;&lt;/h1&gt;&lt;h1&gt;&lt;span style=&quot;background-color: initial; font-size: 12px; font-weight: normal;&quot;&gt;Used to update the data for the back end, should also have a pretty good UI&amp;nbsp;&lt;/span&gt;&lt;br&gt;&lt;/h1&gt;" style="text;html=1;strokeColor=none;fillColor=none;spacing=5;spacingTop=-20;whiteSpace=wrap;overflow=hidden;rounded=0;" parent="1" vertex="1">
                    <mxGeometry x="-840" y="460" width="280" height="120" as="geometry"/>
                </mxCell>
                <mxCell id="zg9DQOE80Z0EGd7Dg1Hg-9" value="&lt;h1&gt;&lt;span style=&quot;font-size: 21px;&quot;&gt;Entity Framework/Swagger C# API&lt;/span&gt;&lt;/h1&gt;&lt;h1 style=&quot;line-height: 50%;&quot;&gt;&lt;span style=&quot;font-size: 12px; font-weight: 400;&quot;&gt;Used to interact directly with the database. Hopefully with a good swagger UI to interact with just to have that knowledge.&lt;/span&gt;&lt;/h1&gt;" style="text;html=1;strokeColor=none;fillColor=none;spacing=5;spacingTop=-20;whiteSpace=wrap;overflow=hidden;rounded=0;" parent="1" vertex="1">
                    <mxGeometry x="-270" y="270" width="390" height="150" as="geometry"/>
                </mxCell>
                <mxCell id="zg9DQOE80Z0EGd7Dg1Hg-13" value="&amp;nbsp;CRUD Calls" style="edgeStyle=orthogonalEdgeStyle;rounded=1;orthogonalLoop=1;jettySize=auto;html=1;entryX=0;entryY=0.541;entryDx=0;entryDy=0;entryPerimeter=0;shadow=1;fontSize=21;startArrow=classic;startFill=1;" parent="1" source="zg9DQOE80Z0EGd7Dg1Hg-10" target="zg9DQOE80Z0EGd7Dg1Hg-5" edge="1">
                    <mxGeometry x="-0.0791" y="28" relative="1" as="geometry">
                        <mxPoint x="-3" y="-13" as="offset"/>
                    </mxGeometry>
                </mxCell>
                <mxCell id="zg9DQOE80Z0EGd7Dg1Hg-10" value="" style="sketch=0;html=1;dashed=0;whitespace=wrap;fillColor=#2875E2;strokeColor=#ffffff;points=[[0.005,0.63,0],[0.1,0.2,0],[0.9,0.2,0],[0.5,0,0],[0.995,0.63,0],[0.72,0.99,0],[0.5,1,0],[0.28,0.99,0]];verticalLabelPosition=bottom;align=center;verticalAlign=top;shape=mxgraph.kubernetes.icon;prIcon=api;fontSize=21;" parent="1" vertex="1">
                    <mxGeometry x="-280" y="376" width="210" height="174" as="geometry"/>
                </mxCell>
            </root>
        </mxGraphModel>
    </diagram>
    <diagram id="8npML3hVAjMzka1DyOfE" name="Database">
        <mxGraphModel dx="1130" dy="792" grid="1" gridSize="10" guides="1" tooltips="1" connect="1" arrows="1" fold="1" page="1" pageScale="1" pageWidth="850" pageHeight="1100" math="0" shadow="0">
            <root>
                <mxCell id="0"/>
                <mxCell id="1" parent="0"/>
                <mxCell id="pa1m92kxCxBLFFSq1UXe-1" value="Money_Making_Methods" style="shape=table;startSize=30;container=1;collapsible=1;childLayout=tableLayout;fixedRows=1;rowLines=0;fontStyle=1;align=center;resizeLast=1;" vertex="1" parent="1">
                    <mxGeometry x="180" y="60" width="330" height="270" as="geometry"/>
                </mxCell>
                <mxCell id="pa1m92kxCxBLFFSq1UXe-2" value="" style="shape=tableRow;horizontal=0;startSize=0;swimlaneHead=0;swimlaneBody=0;fillColor=none;collapsible=0;dropTarget=0;points=[[0,0.5],[1,0.5]];portConstraint=eastwest;top=0;left=0;right=0;bottom=1;" vertex="1" parent="pa1m92kxCxBLFFSq1UXe-1">
                    <mxGeometry y="30" width="330" height="30" as="geometry"/>
                </mxCell>
                <mxCell id="pa1m92kxCxBLFFSq1UXe-3" value="PK" style="shape=partialRectangle;connectable=0;fillColor=none;top=0;left=0;bottom=0;right=0;fontStyle=1;overflow=hidden;" vertex="1" parent="pa1m92kxCxBLFFSq1UXe-2">
                    <mxGeometry width="30" height="30" as="geometry">
                        <mxRectangle width="30" height="30" as="alternateBounds"/>
                    </mxGeometry>
                </mxCell>
                <mxCell id="pa1m92kxCxBLFFSq1UXe-4" value="method_id GUID not null" style="shape=partialRectangle;connectable=0;fillColor=none;top=0;left=0;bottom=0;right=0;align=left;spacingLeft=6;fontStyle=1;overflow=hidden;" vertex="1" parent="pa1m92kxCxBLFFSq1UXe-2">
                    <mxGeometry x="30" width="300" height="30" as="geometry">
                        <mxRectangle width="300" height="30" as="alternateBounds"/>
                    </mxGeometry>
                </mxCell>
                <mxCell id="pa1m92kxCxBLFFSq1UXe-58" style="shape=tableRow;horizontal=0;startSize=0;swimlaneHead=0;swimlaneBody=0;fillColor=none;collapsible=0;dropTarget=0;points=[[0,0.5],[1,0.5]];portConstraint=eastwest;top=0;left=0;right=0;bottom=1;" vertex="1" parent="pa1m92kxCxBLFFSq1UXe-1">
                    <mxGeometry y="60" width="330" height="30" as="geometry"/>
                </mxCell>
                <mxCell id="pa1m92kxCxBLFFSq1UXe-59" value="FK" style="shape=partialRectangle;connectable=0;fillColor=none;top=0;left=0;bottom=0;right=0;fontStyle=1;overflow=hidden;" vertex="1" parent="pa1m92kxCxBLFFSq1UXe-58">
                    <mxGeometry width="30" height="30" as="geometry">
                        <mxRectangle width="30" height="30" as="alternateBounds"/>
                    </mxGeometry>
                </mxCell>
                <mxCell id="pa1m92kxCxBLFFSq1UXe-60" value="intensity int not null" style="shape=partialRectangle;connectable=0;fillColor=none;top=0;left=0;bottom=0;right=0;align=left;spacingLeft=6;fontStyle=1;overflow=hidden;" vertex="1" parent="pa1m92kxCxBLFFSq1UXe-58">
                    <mxGeometry x="30" width="300" height="30" as="geometry">
                        <mxRectangle width="300" height="30" as="alternateBounds"/>
                    </mxGeometry>
                </mxCell>
                <mxCell id="pa1m92kxCxBLFFSq1UXe-8" value="" style="shape=tableRow;horizontal=0;startSize=0;swimlaneHead=0;swimlaneBody=0;fillColor=none;collapsible=0;dropTarget=0;points=[[0,0.5],[1,0.5]];portConstraint=eastwest;top=0;left=0;right=0;bottom=0;swimlaneLine=1;" vertex="1" parent="pa1m92kxCxBLFFSq1UXe-1">
                    <mxGeometry y="90" width="330" height="30" as="geometry"/>
                </mxCell>
                <mxCell id="pa1m92kxCxBLFFSq1UXe-9" value="" style="shape=partialRectangle;connectable=0;fillColor=none;top=0;left=0;bottom=0;right=0;editable=1;overflow=hidden;" vertex="1" parent="pa1m92kxCxBLFFSq1UXe-8">
                    <mxGeometry width="30" height="30" as="geometry">
                        <mxRectangle width="30" height="30" as="alternateBounds"/>
                    </mxGeometry>
                </mxCell>
                <mxCell id="pa1m92kxCxBLFFSq1UXe-10" value="method char(150) not null" style="shape=partialRectangle;connectable=0;fillColor=none;top=0;left=0;bottom=0;right=0;align=left;spacingLeft=6;overflow=hidden;shadow=0;" vertex="1" parent="pa1m92kxCxBLFFSq1UXe-8">
                    <mxGeometry x="30" width="300" height="30" as="geometry">
                        <mxRectangle width="300" height="30" as="alternateBounds"/>
                    </mxGeometry>
                </mxCell>
                <mxCell id="pa1m92kxCxBLFFSq1UXe-11" value="" style="shape=tableRow;horizontal=0;startSize=0;swimlaneHead=0;swimlaneBody=0;fillColor=none;collapsible=0;dropTarget=0;points=[[0,0.5],[1,0.5]];portConstraint=eastwest;top=0;left=0;right=0;bottom=0;" vertex="1" parent="pa1m92kxCxBLFFSq1UXe-1">
                    <mxGeometry y="120" width="330" height="30" as="geometry"/>
                </mxCell>
                <mxCell id="pa1m92kxCxBLFFSq1UXe-12" value="" style="shape=partialRectangle;connectable=0;fillColor=none;top=0;left=0;bottom=0;right=0;editable=1;overflow=hidden;" vertex="1" parent="pa1m92kxCxBLFFSq1UXe-11">
                    <mxGeometry width="30" height="30" as="geometry">
                        <mxRectangle width="30" height="30" as="alternateBounds"/>
                    </mxGeometry>
                </mxCell>
                <mxCell id="pa1m92kxCxBLFFSq1UXe-13" value="hourly_profit bigint(255)" style="shape=partialRectangle;connectable=0;fillColor=none;top=0;left=0;bottom=0;right=0;align=left;spacingLeft=6;overflow=hidden;" vertex="1" parent="pa1m92kxCxBLFFSq1UXe-11">
                    <mxGeometry x="30" width="300" height="30" as="geometry">
                        <mxRectangle width="300" height="30" as="alternateBounds"/>
                    </mxGeometry>
                </mxCell>
                <mxCell id="pa1m92kxCxBLFFSq1UXe-14" style="shape=tableRow;horizontal=0;startSize=0;swimlaneHead=0;swimlaneBody=0;fillColor=none;collapsible=0;dropTarget=0;points=[[0,0.5],[1,0.5]];portConstraint=eastwest;top=0;left=0;right=0;bottom=0;" vertex="1" parent="pa1m92kxCxBLFFSq1UXe-1">
                    <mxGeometry y="150" width="330" height="30" as="geometry"/>
                </mxCell>
                <mxCell id="pa1m92kxCxBLFFSq1UXe-15" style="shape=partialRectangle;connectable=0;fillColor=none;top=0;left=0;bottom=0;right=0;editable=1;overflow=hidden;" vertex="1" parent="pa1m92kxCxBLFFSq1UXe-14">
                    <mxGeometry width="30" height="30" as="geometry">
                        <mxRectangle width="30" height="30" as="alternateBounds"/>
                    </mxGeometry>
                </mxCell>
                <mxCell id="pa1m92kxCxBLFFSq1UXe-16" value="skill_or_area char(150) " style="shape=partialRectangle;connectable=0;fillColor=none;top=0;left=0;bottom=0;right=0;align=left;spacingLeft=6;overflow=hidden;" vertex="1" parent="pa1m92kxCxBLFFSq1UXe-14">
                    <mxGeometry x="30" width="300" height="30" as="geometry">
                        <mxRectangle width="300" height="30" as="alternateBounds"/>
                    </mxGeometry>
                </mxCell>
                <mxCell id="pa1m92kxCxBLFFSq1UXe-17" style="shape=tableRow;horizontal=0;startSize=0;swimlaneHead=0;swimlaneBody=0;fillColor=none;collapsible=0;dropTarget=0;points=[[0,0.5],[1,0.5]];portConstraint=eastwest;top=0;left=0;right=0;bottom=0;" vertex="1" parent="pa1m92kxCxBLFFSq1UXe-1">
                    <mxGeometry y="180" width="330" height="30" as="geometry"/>
                </mxCell>
                <mxCell id="pa1m92kxCxBLFFSq1UXe-18" style="shape=partialRectangle;connectable=0;fillColor=none;top=0;left=0;bottom=0;right=0;editable=1;overflow=hidden;" vertex="1" parent="pa1m92kxCxBLFFSq1UXe-17">
                    <mxGeometry width="30" height="30" as="geometry">
                        <mxRectangle width="30" height="30" as="alternateBounds"/>
                    </mxGeometry>
                </mxCell>
                <mxCell id="pa1m92kxCxBLFFSq1UXe-19" value="video_link char(2048)" style="shape=partialRectangle;connectable=0;fillColor=none;top=0;left=0;bottom=0;right=0;align=left;spacingLeft=6;overflow=hidden;" vertex="1" parent="pa1m92kxCxBLFFSq1UXe-17">
                    <mxGeometry x="30" width="300" height="30" as="geometry">
                        <mxRectangle width="300" height="30" as="alternateBounds"/>
                    </mxGeometry>
                </mxCell>
                <mxCell id="pa1m92kxCxBLFFSq1UXe-20" style="shape=tableRow;horizontal=0;startSize=0;swimlaneHead=0;swimlaneBody=0;fillColor=none;collapsible=0;dropTarget=0;points=[[0,0.5],[1,0.5]];portConstraint=eastwest;top=0;left=0;right=0;bottom=0;" vertex="1" parent="pa1m92kxCxBLFFSq1UXe-1">
                    <mxGeometry y="210" width="330" height="30" as="geometry"/>
                </mxCell>
                <mxCell id="pa1m92kxCxBLFFSq1UXe-21" style="shape=partialRectangle;connectable=0;fillColor=none;top=0;left=0;bottom=0;right=0;editable=1;overflow=hidden;" vertex="1" parent="pa1m92kxCxBLFFSq1UXe-20">
                    <mxGeometry width="30" height="30" as="geometry">
                        <mxRectangle width="30" height="30" as="alternateBounds"/>
                    </mxGeometry>
                </mxCell>
                <mxCell id="pa1m92kxCxBLFFSq1UXe-22" value="notes char(2000)" style="shape=partialRectangle;connectable=0;fillColor=none;top=0;left=0;bottom=0;right=0;align=left;spacingLeft=6;overflow=hidden;" vertex="1" parent="pa1m92kxCxBLFFSq1UXe-20">
                    <mxGeometry x="30" width="300" height="30" as="geometry">
                        <mxRectangle width="300" height="30" as="alternateBounds"/>
                    </mxGeometry>
                </mxCell>
                <mxCell id="pa1m92kxCxBLFFSq1UXe-23" style="shape=tableRow;horizontal=0;startSize=0;swimlaneHead=0;swimlaneBody=0;fillColor=none;collapsible=0;dropTarget=0;points=[[0,0.5],[1,0.5]];portConstraint=eastwest;top=0;left=0;right=0;bottom=0;" vertex="1" parent="pa1m92kxCxBLFFSq1UXe-1">
                    <mxGeometry y="240" width="330" height="30" as="geometry"/>
                </mxCell>
                <mxCell id="pa1m92kxCxBLFFSq1UXe-24" style="shape=partialRectangle;connectable=0;fillColor=none;top=0;left=0;bottom=0;right=0;editable=1;overflow=hidden;" vertex="1" parent="pa1m92kxCxBLFFSq1UXe-23">
                    <mxGeometry width="30" height="30" as="geometry">
                        <mxRectangle width="30" height="30" as="alternateBounds"/>
                    </mxGeometry>
                </mxCell>
                <mxCell id="pa1m92kxCxBLFFSq1UXe-25" value="created_datetime datetime" style="shape=partialRectangle;connectable=0;fillColor=none;top=0;left=0;bottom=0;right=0;align=left;spacingLeft=6;overflow=hidden;" vertex="1" parent="pa1m92kxCxBLFFSq1UXe-23">
                    <mxGeometry x="30" width="300" height="30" as="geometry">
                        <mxRectangle width="300" height="30" as="alternateBounds"/>
                    </mxGeometry>
                </mxCell>
                <mxCell id="pa1m92kxCxBLFFSq1UXe-64" value="Intensity" style="shape=table;startSize=30;container=1;collapsible=1;childLayout=tableLayout;fixedRows=1;rowLines=0;fontStyle=1;align=center;resizeLast=1;shadow=0;sketch=0;" vertex="1" parent="1">
                    <mxGeometry x="560" y="60" width="180" height="150" as="geometry"/>
                </mxCell>
                <mxCell id="pa1m92kxCxBLFFSq1UXe-65" value="" style="shape=tableRow;horizontal=0;startSize=0;swimlaneHead=0;swimlaneBody=0;fillColor=none;collapsible=0;dropTarget=0;points=[[0,0.5],[1,0.5]];portConstraint=eastwest;top=0;left=0;right=0;bottom=1;shadow=0;sketch=0;" vertex="1" parent="pa1m92kxCxBLFFSq1UXe-64">
                    <mxGeometry y="30" width="180" height="30" as="geometry"/>
                </mxCell>
                <mxCell id="pa1m92kxCxBLFFSq1UXe-66" value="PK" style="shape=partialRectangle;connectable=0;fillColor=none;top=0;left=0;bottom=0;right=0;fontStyle=1;overflow=hidden;shadow=0;sketch=0;" vertex="1" parent="pa1m92kxCxBLFFSq1UXe-65">
                    <mxGeometry width="30" height="30" as="geometry">
                        <mxRectangle width="30" height="30" as="alternateBounds"/>
                    </mxGeometry>
                </mxCell>
                <mxCell id="pa1m92kxCxBLFFSq1UXe-67" value="intensity int not null" style="shape=partialRectangle;connectable=0;fillColor=none;top=0;left=0;bottom=0;right=0;align=left;spacingLeft=6;fontStyle=5;overflow=hidden;shadow=0;sketch=0;" vertex="1" parent="pa1m92kxCxBLFFSq1UXe-65">
                    <mxGeometry x="30" width="150" height="30" as="geometry">
                        <mxRectangle width="150" height="30" as="alternateBounds"/>
                    </mxGeometry>
                </mxCell>
                <mxCell id="pa1m92kxCxBLFFSq1UXe-68" value="" style="shape=tableRow;horizontal=0;startSize=0;swimlaneHead=0;swimlaneBody=0;fillColor=none;collapsible=0;dropTarget=0;points=[[0,0.5],[1,0.5]];portConstraint=eastwest;top=0;left=0;right=0;bottom=0;shadow=0;sketch=0;" vertex="1" parent="pa1m92kxCxBLFFSq1UXe-64">
                    <mxGeometry y="60" width="180" height="30" as="geometry"/>
                </mxCell>
                <mxCell id="pa1m92kxCxBLFFSq1UXe-69" value="" style="shape=partialRectangle;connectable=0;fillColor=none;top=0;left=0;bottom=0;right=0;editable=1;overflow=hidden;shadow=0;sketch=0;" vertex="1" parent="pa1m92kxCxBLFFSq1UXe-68">
                    <mxGeometry width="30" height="30" as="geometry">
                        <mxRectangle width="30" height="30" as="alternateBounds"/>
                    </mxGeometry>
                </mxCell>
                <mxCell id="pa1m92kxCxBLFFSq1UXe-70" value="Short Description" style="shape=partialRectangle;connectable=0;fillColor=none;top=0;left=0;bottom=0;right=0;align=left;spacingLeft=6;overflow=hidden;shadow=0;sketch=0;" vertex="1" parent="pa1m92kxCxBLFFSq1UXe-68">
                    <mxGeometry x="30" width="150" height="30" as="geometry">
                        <mxRectangle width="150" height="30" as="alternateBounds"/>
                    </mxGeometry>
                </mxCell>
                <mxCell id="pa1m92kxCxBLFFSq1UXe-71" value="" style="shape=tableRow;horizontal=0;startSize=0;swimlaneHead=0;swimlaneBody=0;fillColor=none;collapsible=0;dropTarget=0;points=[[0,0.5],[1,0.5]];portConstraint=eastwest;top=0;left=0;right=0;bottom=0;shadow=0;sketch=0;" vertex="1" parent="pa1m92kxCxBLFFSq1UXe-64">
                    <mxGeometry y="90" width="180" height="30" as="geometry"/>
                </mxCell>
                <mxCell id="pa1m92kxCxBLFFSq1UXe-72" value="" style="shape=partialRectangle;connectable=0;fillColor=none;top=0;left=0;bottom=0;right=0;editable=1;overflow=hidden;shadow=0;sketch=0;" vertex="1" parent="pa1m92kxCxBLFFSq1UXe-71">
                    <mxGeometry width="30" height="30" as="geometry">
                        <mxRectangle width="30" height="30" as="alternateBounds"/>
                    </mxGeometry>
                </mxCell>
                <mxCell id="pa1m92kxCxBLFFSq1UXe-73" value="Long Description" style="shape=partialRectangle;connectable=0;fillColor=none;top=0;left=0;bottom=0;right=0;align=left;spacingLeft=6;overflow=hidden;shadow=0;sketch=0;" vertex="1" parent="pa1m92kxCxBLFFSq1UXe-71">
                    <mxGeometry x="30" width="150" height="30" as="geometry">
                        <mxRectangle width="150" height="30" as="alternateBounds"/>
                    </mxGeometry>
                </mxCell>
                <mxCell id="pa1m92kxCxBLFFSq1UXe-74" value="" style="shape=tableRow;horizontal=0;startSize=0;swimlaneHead=0;swimlaneBody=0;fillColor=none;collapsible=0;dropTarget=0;points=[[0,0.5],[1,0.5]];portConstraint=eastwest;top=0;left=0;right=0;bottom=0;shadow=0;sketch=0;" vertex="1" parent="pa1m92kxCxBLFFSq1UXe-64">
                    <mxGeometry y="120" width="180" height="30" as="geometry"/>
                </mxCell>
                <mxCell id="pa1m92kxCxBLFFSq1UXe-75" value="" style="shape=partialRectangle;connectable=0;fillColor=none;top=0;left=0;bottom=0;right=0;editable=1;overflow=hidden;shadow=0;sketch=0;" vertex="1" parent="pa1m92kxCxBLFFSq1UXe-74">
                    <mxGeometry width="30" height="30" as="geometry">
                        <mxRectangle width="30" height="30" as="alternateBounds"/>
                    </mxGeometry>
                </mxCell>
                <mxCell id="pa1m92kxCxBLFFSq1UXe-76" value="Row 3" style="shape=partialRectangle;connectable=0;fillColor=none;top=0;left=0;bottom=0;right=0;align=left;spacingLeft=6;overflow=hidden;shadow=0;sketch=0;" vertex="1" parent="pa1m92kxCxBLFFSq1UXe-74">
                    <mxGeometry x="30" width="150" height="30" as="geometry">
                        <mxRectangle width="150" height="30" as="alternateBounds"/>
                    </mxGeometry>
                </mxCell>
            </root>
        </mxGraphModel>
    </diagram>
</mxfile>